<?xml version="1.0" encoding="UTF-8" standalone="no"?>
<!-- Created with Inkscape (http://www.inkscape.org/) -->

<svg
   xmlns:dc="http://purl.org/dc/elements/1.1/"
   xmlns:cc="http://creativecommons.org/ns#"
   xmlns:rdf="http://www.w3.org/1999/02/22-rdf-syntax-ns#"
   xmlns:svg="http://www.w3.org/2000/svg"
   xmlns="http://www.w3.org/2000/svg"
   xmlns:sodipodi="http://sodipodi.sourceforge.net/DTD/sodipodi-0.dtd"
   xmlns:inkscape="http://www.inkscape.org/namespaces/inkscape"
   width="150mm"
   height="150mm"
   viewBox="0 0 150 150"
   version="1.1"
   id="svg8"
   inkscape:version="0.92.0 r15299"
   sodipodi:docname="engrenage_01.svg">
  <defs
     id="defs2" />
  <sodipodi:namedview
     id="base"
     pagecolor="#ffffff"
     bordercolor="#666666"
     borderopacity="1.0"
     inkscape:pageopacity="0.0"
     inkscape:pageshadow="2"
     inkscape:zoom="0.35"
     inkscape:cx="-110"
     inkscape:cy="560"
     inkscape:document-units="mm"
     inkscape:current-layer="layer1"
     showgrid="false"
     inkscape:window-width="1920"
     inkscape:window-height="1017"
     inkscape:window-x="-8"
     inkscape:window-y="-8"
     inkscape:window-maximized="1" />
  <metadata
     id="metadata5">
    <rdf:RDF>
      <cc:Work
         rdf:about="">
        <dc:format>image/svg+xml</dc:format>
        <dc:type
           rdf:resource="http://purl.org/dc/dcmitype/StillImage" />
        <dc:title></dc:title>
      </cc:Work>
    </rdf:RDF>
  </metadata>
  <g
     inkscape:label="Calque 1"
     inkscape:groupmode="layer"
     id="layer1"
     transform="translate(0,-147)">
    <path
       id="path2"
       d="m 18.058578,238.34335 c 1.296458,4.445 3.095625,8.73125 5.371041,12.75292 l -6.482291,8.17562 c -2.116667,2.6723 -1.878542,6.4823 0.502708,8.89 l 11.165417,11.16568 c 2.407708,2.40771 6.217708,2.61885 8.89,0.50218 l 8.122708,-6.42964 c 4.180416,2.40824 8.625416,4.28652 13.255625,5.60944 l 1.217348,10.45104 c 0.396875,3.3864 3.254374,5.92613 6.641041,5.92613 H 82.5378 c 3.386671,0 6.244431,-2.54 6.641311,-5.92613 l 1.1639,-10.08116 c 4.97416,-1.29593 9.736649,-3.22765 14.208109,-5.74119 l 7.85813,6.21771 c 2.67229,2.11666 6.48229,1.87854 8.89,-0.50271 l 11.16541,-11.16542 c 2.40771,-2.40771 2.61938,-6.21771 0.50271,-8.89 l -6.11214,-7.75229 c 2.54027,-4.39235 4.52464,-9.07521 5.84756,-13.97 l 9.41916,-1.08479 c 3.38694,-0.39688 5.92667,-3.25438 5.92667,-6.64104 v -15.79562 c 0,-3.38667 -2.54026,-6.24417 -5.92667,-6.64105 l -9.28687,-1.08479 c -1.27053,-4.84187 -3.175,-9.47208 -5.6089,-13.81125 l 5.715,-7.22312 c 2.11666,-2.67229 1.8788,-6.48229 -0.50245,-8.89 l -11.13922,-11.13896 c -2.40771,-2.40771 -6.21771,-2.61938 -8.89,-0.50271 l -7.01146,5.55625 c -4.55083,-2.67229 -9.419679,-4.70958 -14.525609,-6.08542 l -1.05833,-9.0752 c -0.39688,-3.38667 -3.25438,-5.92667 -6.641047,-5.92667 H 67.37744 c -3.386667,0 -6.244431,2.54 -6.641306,5.92667 l -1.058334,9.0752 c -5.23875,1.4023 -10.23911,3.51896 -14.896041,6.29709 l -7.276042,-5.76792 c -2.672291,-2.11667 -6.482291,-1.87854 -8.89,0.50271 l -11.165416,11.16542 c -2.407973,2.4077 -2.619375,6.2177 -0.502709,8.89 l 6.085417,7.69937 c -2.433902,4.39208 -4.28625,9.07521 -5.503333,13.94354 l -9.7366666,1.11125 c -3.386666,0.39688 -5.926666,3.25438 -5.926666,6.64104 v 15.79563 c 0,3.38666 2.540264,6.24416 5.926666,6.64104 z m 57.229374,-42.7302 c 14.393329,0 26.114368,11.72104 26.114368,26.11437 0,14.39333 -11.721039,26.11437 -26.114368,26.11437 -14.392804,0 -26.114375,-11.72104 -26.114375,-26.11437 0,-14.39333 11.721042,-26.11437 26.114375,-26.11437 z"
       inkscape:connector-curvature="0"
       style="fill:#333333;stroke-width:0.26458332" />
  </g>
</svg>
